<svg width="22" height="21" viewBox="0 0 22 21" fill="none" xmlns="http://www.w3.org/2000/svg">
<path d="M19.4578 3.09133C18.9691 2.58683 18.3889 2.18663 17.7503 1.91358C17.1117 1.64054 16.4272 1.5 15.7359 1.5C15.0446 1.5 14.3601 1.64054 13.7215 1.91358C13.0829 2.18663 12.5026 2.58683 12.0139 3.09133L10.9997 4.13785L9.98554 3.09133C8.99842 2.07276 7.6596 1.50053 6.26361 1.50053C4.86761 1.50053 3.52879 2.07276 2.54168 3.09133C1.55456 4.1099 1 5.49139 1 6.93187C1 8.37235 1.55456 9.75383 2.54168 10.7724L10.9997 19.5L19.4578 10.7724C19.9467 10.2681 20.3346 9.66942 20.5992 9.01045C20.8638 8.35148 21 7.64517 21 6.93187C21 6.21857 20.8638 5.51225 20.5992 4.85328C20.3346 4.19431 19.9467 3.59559 19.4578 3.09133Z" stroke="#100E0E" stroke-width="1.5" stroke-linecap="round" stroke-linejoin="round"/>
</svg>
